<svg width="18" height="20" viewBox="0 0 18 20" fill="none" xmlns="http://www.w3.org/2000/svg">
<path fill-rule="evenodd" clip-rule="evenodd" d="M10.5923 14.2682C10.5921 14.2681 10.5919 14.2682 10.5918 14.2683C9.5713 16.0359 7.31108 16.6416 5.54347 15.621C3.77587 14.6005 3.17024 12.3403 4.19077 10.5727C4.19086 10.5725 4.19081 10.5723 4.19065 10.5722L2.91102 9.83343C2.91086 9.83333 2.91065 9.83339 2.91056 9.83355C1.48182 12.3082 2.3297 15.4725 4.80434 16.9012C7.27899 18.33 10.4433 17.4821 11.872 15.0075C11.8721 15.0073 11.8721 15.0071 11.8719 15.007L10.5923 14.2682ZM13.1788 9.78759C12.9748 10.141 13.0961 10.593 13.4495 10.797C13.8029 11.001 14.255 10.8801 14.459 10.5267C15.8877 8.05208 15.0399 4.88776 12.5652 3.45903C10.0906 2.03029 6.92625 2.87817 5.49751 5.35281C5.2935 5.70617 5.41487 6.15818 5.76822 6.36219C6.12158 6.5662 6.57371 6.4453 6.77773 6.09194C7.79825 4.32434 10.0585 3.71871 11.8261 4.73924C13.5937 5.75976 14.1993 8.01999 13.1788 9.78759Z" fill="#26353F"/>
<rect x="1.18848" y="5.42529" width="17" height="1.47826" rx="0.73913" transform="rotate(30 1.18848 5.42529)" fill="#26353F"/>
</svg>
