<svg width="29" height="29" viewBox="0 0 29 29" fill="none" xmlns="http://www.w3.org/2000/svg">
<path fill-rule="evenodd" clip-rule="evenodd" d="M14.5 29C22.5081 29 29 22.5081 29 14.5C29 6.49187 22.5081 0 14.5 0C6.49187 0 0 6.49187 0 14.5C0 22.5081 6.49187 29 14.5 29ZM16.6174 20.9966C15.7507 22.6513 14.9018 23 14.5 23C14.0982 23 13.2493 22.6513 12.3826 20.9966C11.955 20.1803 11.5963 19.1631 11.3515 18H17.6485C17.4037 19.1631 17.045 20.1803 16.6174 20.9966ZM11 14.5C11 15.0142 11.0214 15.5151 11.0619 16H17.9381C17.9786 15.5151 18 15.0142 18 14.5C18 13.6236 17.9378 12.7856 17.8249 12H11.1751C11.0622 12.7856 11 13.6236 11 14.5ZM18.289 22.1108C18.9112 20.9816 19.395 19.5773 19.687 18H22.2483C21.4412 19.7838 20.0363 21.2393 18.289 22.1108ZM19.9443 16H22.8681C22.9548 15.5131 23 15.0118 23 14.5C23 13.6299 22.8693 12.7904 22.6264 12H19.8431C19.9457 12.8012 20 13.6385 20 14.5C20 15.0093 19.981 15.5101 19.9443 16ZM6.13193 16H9.0557C9.01899 15.5101 9 15.0093 9 14.5C9 13.6385 9.05435 12.8012 9.15685 12H6.3736C6.13072 12.7904 6 13.6299 6 14.5C6 15.0118 6.04524 15.5131 6.13193 16ZM9.31296 18H6.75174C7.55878 19.7838 8.96373 21.2393 10.711 22.1108C10.0888 20.9816 9.60498 19.5773 9.31296 18ZM17.4003 10H11.5997C11.8163 9.24819 12.0825 8.57631 12.3826 8.00339C13.2493 6.3487 14.0982 6 14.5 6C14.9018 6 15.7507 6.3487 16.6174 8.00339C16.9175 8.57631 17.1837 9.24819 17.4003 10ZM21.7124 10H19.4707C19.1788 8.82698 18.7764 7.77367 18.289 6.88916C19.697 7.59148 20.8828 8.67302 21.7124 10ZM9.52928 10C9.82117 8.82698 10.2236 7.77367 10.711 6.88916C9.30296 7.59148 8.11724 8.67302 7.28755 10H9.52928ZM25 14.5C25 8.70101 20.299 4 14.5 4C8.70101 4 4 8.70101 4 14.5C4 20.299 8.70101 25 14.5 25C20.299 25 25 20.299 25 14.5Z" fill="white"/>
</svg>
