<svg width="17" height="17" viewBox="0 0 17 17" fill="none" xmlns="http://www.w3.org/2000/svg">
<path fill-rule="evenodd" clip-rule="evenodd" d="M16 8.5C16 12.6421 12.6421 16 8.5 16C4.35786 16 1 12.6421 1 8.5C1 4.35786 4.35786 1 8.5 1C12.6421 1 16 4.35786 16 8.5ZM17 8.5C17 13.1944 13.1944 17 8.5 17C3.80558 17 0 13.1944 0 8.5C0 3.80558 3.80558 0 8.5 0C13.1944 0 17 3.80558 17 8.5ZM10 3.6C10 4.48366 9.2837 5.2 8.40005 5.2C7.51639 5.2 6.80005 4.48366 6.80005 3.6C6.80005 2.71634 7.51639 2 8.40005 2C9.2837 2 10 2.71634 10 3.6ZM10 8.39999V5.99999L6 5.99999V8.39999H10ZM10 8.40001V11.6H10.8V14L6.00001 14V11.6H6.80005V8.40001H10Z" fill="#6743AA"/>
</svg>
