<svg width="21" height="18" viewBox="0 0 21 18" fill="none" xmlns="http://www.w3.org/2000/svg">
<path fill-rule="evenodd" clip-rule="evenodd" d="M8.39774 6.57031L4.50063 11.8203L0.603515 6.57031L3.48975 6.57031C4.51131 2.78523 7.96878 3.21946e-07 12.0768 5.01512e-07C16.9885 7.16211e-07 20.9703 3.98177 20.9703 8.89352C20.9703 13.8053 16.9885 17.787 12.0768 17.787C11.5245 17.787 11.0768 17.3393 11.0768 16.787C11.0768 16.2348 11.5245 15.787 12.0768 15.787C15.884 15.787 18.9703 12.7007 18.9703 8.89352C18.9703 5.08634 15.884 2 12.0768 2C9.08477 2 6.53798 3.90615 5.58452 6.57031L8.39774 6.57031Z" fill="#9479C8"/>
</svg>
