<svg width="21" height="18" viewBox="0 0 21 18" fill="none" xmlns="http://www.w3.org/2000/svg">
<path fill-rule="evenodd" clip-rule="evenodd" d="M7.79423 6.5708L3.89711 11.8208L-2.87219e-07 6.5708L2.88648 6.5708C3.90787 2.78547 7.36546 3.21954e-07 11.4736 5.01528e-07C16.3854 7.16228e-07 20.3671 3.98177 20.3671 8.89352C20.3671 13.8053 16.3854 17.787 11.4736 17.787C10.9213 17.787 10.4736 17.3393 10.4736 16.787C10.4736 16.2348 10.9213 15.787 11.4736 15.787C15.2808 15.787 18.3671 12.7007 18.3671 8.89352C18.3671 5.08634 15.2808 2 11.4736 2C8.48145 2 5.93453 3.90638 4.98121 6.5708L7.79423 6.5708Z" fill="white"/>
</svg>
