<svg width="19" height="18" viewBox="0 0 19 18" fill="none" xmlns="http://www.w3.org/2000/svg">
<path d="M14.0454 1C14.144 1.00641 14.2358 1.04886 14.301 1.11812C14.3661 1.18737 14.3993 1.27783 14.3933 1.3698V6.44253C14.3981 7.43477 14.1386 8.41258 13.6381 9.28814C12.9611 10.4586 11.8787 11.3359 10.599 11.6992V14.1029H7.9466V11.6992C6.66696 11.335 5.58458 10.4576 4.90759 9.28722C4.40705 8.41166 4.14752 7.43385 4.1523 6.44161V1.3698C4.14631 1.27783 4.1795 1.18737 4.24466 1.11812C4.30981 1.04886 4.40165 1.00641 4.5002 1H14.0454Z" stroke="white" stroke-miterlimit="10"/>
<path d="M4.93939 9.33838H4.53656C2.58384 9.33838 1.0007 7.72648 1.0007 5.73838V2.94838C0.994616 2.85885 1.02835 2.77079 1.09455 2.70337C1.16075 2.63595 1.25406 2.59462 1.35419 2.58838H4.174V6.57268C4.16936 7.53695 4.43234 8.4872 4.93939 9.33838V9.33838Z" stroke="white" stroke-miterlimit="10"/>
<path d="M17.5447 2.94838V5.73838C17.5447 7.72648 15.9587 9.33838 14.0024 9.33838H13.606C14.1154 8.48602 14.3796 7.53412 14.3747 6.56818V2.58838H17.1865C17.2365 2.59102 17.2855 2.60242 17.3305 2.62195C17.3756 2.64147 17.416 2.66873 17.4492 2.70216C17.4825 2.7356 17.508 2.77455 17.5244 2.8168C17.5408 2.85905 17.5477 2.90376 17.5447 2.94838Z" stroke="white" stroke-miterlimit="10"/>
<path d="M13.212 15.5216V16.5099C13.212 16.6087 13.1704 16.7034 13.0963 16.7733C13.0223 16.8432 12.9218 16.8824 12.817 16.8824H5.72828C5.62351 16.8824 5.52304 16.8432 5.44896 16.7733C5.37488 16.7034 5.33325 16.6087 5.33325 16.5099V15.5216C5.33325 15.1455 5.49158 14.7849 5.77344 14.5188C6.05529 14.2528 6.4376 14.1033 6.83633 14.103H11.709C11.9064 14.103 12.102 14.1397 12.2844 14.211C12.4668 14.2823 12.6326 14.3868 12.7722 14.5186C12.9117 14.6503 13.0224 14.8067 13.0979 14.9788C13.1734 15.1509 13.2122 15.3354 13.212 15.5216Z" stroke="white" stroke-miterlimit="10"/>
</svg>
