<svg width="19" height="16" viewBox="0 0 19 16" fill="none" xmlns="http://www.w3.org/2000/svg">
<path d="M10.6443 0.00154621C13.0646 0.00154621 15.4848 0.00154621 17.9051 0.00154621C18.0496 -0.00454449 18.1942 0.00737428 18.3356 0.0370273C18.7768 0.150165 18.9562 0.653595 18.6449 0.979619C17.798 1.86665 16.9371 2.74095 16.0554 3.59049C15.9216 3.72438 15.6464 3.75718 15.4362 3.75785C12.3132 3.76723 9.1902 3.76321 6.06786 3.76254H0.913065C0.812647 3.76254 0.694153 3.79534 0.615158 3.75384C0.419677 3.65275 0.192732 3.54965 0.0728999 3.38229C-0.0730411 3.17677 0.0166658 2.93175 0.19608 2.74631C1.00813 1.90079 1.80746 1.04523 2.64293 0.225144C2.79222 0.077864 3.08611 0.0202909 3.31373 0.018952C5.75724 0.00489349 8.19874 0.0102491 10.6443 0.0102491V0.00154621Z" fill="#210D48"/>
<path d="M10.6677 11.5623H17.8623C17.9848 11.5623 18.1301 11.5255 18.2258 11.575C18.4112 11.6687 18.6469 11.7805 18.7178 11.9459C18.7848 12.0952 18.7178 12.3891 18.5993 12.5116C17.7779 13.3611 16.9391 14.1959 16.0755 15.0019C15.9222 15.1452 15.6263 15.1867 15.396 15.1867C12.0722 15.1914 8.74833 15.1807 5.42449 15.174C3.91911 15.1713 2.41329 15.1695 0.907017 15.1686C0.784507 15.1686 0.645261 15.2014 0.543504 15.1539C0.373463 15.0756 0.155221 14.9758 0.0929613 14.8279C0.0307021 14.6799 0.0668526 14.3948 0.172626 14.283C1.00007 13.4078 1.84648 12.5511 2.71187 11.7129C2.83237 11.5964 3.08274 11.5743 3.27287 11.5737C5.7378 11.565 8.20273 11.5683 10.6677 11.5683V11.5623Z" fill="#210D48"/>
<path d="M10.5988 9.41538C8.15728 9.41538 5.71578 9.41137 3.27362 9.42074C3.1246 9.42771 2.97589 9.40161 2.83816 9.34431C2.70042 9.28702 2.57708 9.19995 2.47696 9.08936C1.75864 8.34158 1.02492 7.6092 0.291867 6.87547C0.0803192 6.66393 -0.0669607 6.43631 0.0669301 6.13439C0.194126 5.84987 0.445172 5.79966 0.736384 5.79966C5.66446 5.79966 10.5923 5.79721 15.5199 5.7923C15.6473 5.78761 15.7742 5.81 15.8923 5.85801C16.0103 5.90602 16.1168 5.97855 16.2048 6.07079C16.9764 6.84334 17.7523 7.61232 18.5325 8.37773C18.7333 8.57187 18.8471 8.78543 18.7333 9.06392C18.6175 9.3558 18.3798 9.43078 18.0866 9.43078C15.5873 9.42676 13.0898 9.42676 10.5941 9.43078L10.5988 9.41538Z" fill="#210D48"/>
</svg>
