<svg width="15" height="14" viewBox="0 0 15 14" fill="none" xmlns="http://www.w3.org/2000/svg">
<path fill-rule="evenodd" clip-rule="evenodd" d="M8.72686 0.765893C8.58208 0.386331 8.90248 -0.00762952 9.30358 0.0567633L11.7131 0.443584C12.1142 0.507976 12.2952 0.982428 12.0389 1.2976L11.8113 1.57735C13.2108 2.78695 14.0963 4.57503 14.0963 6.56994C14.0963 9.18069 12.5796 11.4372 10.3793 12.5064C9.88106 12.7486 9.34684 12.3506 9.34684 11.7967C9.34684 11.4559 9.55823 11.1553 9.85882 10.9947C11.4384 10.1508 12.5131 8.4859 12.5131 6.56994C12.5131 5.07064 11.855 3.72505 10.8118 2.80634L10.4991 3.19088C10.2428 3.50605 9.74141 3.42556 9.59662 3.046L8.72686 0.765893ZM6.18052 1.10655C6.18052 0.589177 5.70361 0.19974 5.21817 0.378698C2.69946 1.30722 0.90332 3.72883 0.90332 6.56994C0.90332 8.95124 2.16512 11.0378 4.05658 12.1976L3.69992 12.6361C3.4436 12.9513 3.62458 13.4258 4.02569 13.4901L6.43519 13.877C6.83629 13.9414 7.15669 13.5474 7.0119 13.1678L6.14215 10.8877C5.99736 10.5082 5.49598 10.4277 5.23967 10.7429L5.06739 10.9547C3.52805 10.0989 2.48648 8.45607 2.48648 6.56994C2.48648 4.47782 3.76799 2.68502 5.58885 1.93368C5.93016 1.79285 6.18052 1.47578 6.18052 1.10655Z" fill="#ffffff"/>
</svg>
