<svg width="21" height="22" viewBox="0 0 21 22" fill="none" xmlns="http://www.w3.org/2000/svg">
<path fill-rule="evenodd" clip-rule="evenodd" d="M10.5 3.5C10.2239 3.5 10 3.27614 10 3V1C10 0.723858 10.2239 0.5 10.5 0.5C10.7761 0.5 11 0.723858 11 1V3C11 3.27614 10.7761 3.5 10.5 3.5ZM17.5 11C17.5 14.866 14.366 18 10.5 18C6.63401 18 3.5 14.866 3.5 11C3.5 7.13401 6.63401 4 10.5 4C14.366 4 17.5 7.13401 17.5 11ZM0 11C0 10.7239 0.223858 10.5 0.5 10.5H2.5C2.77614 10.5 3 10.7239 3 11C3 11.2761 2.77614 11.5 2.5 11.5H0.5C0.223858 11.5 0 11.2761 0 11ZM20.5 10.5H18.5C18.2239 10.5 18 10.7239 18 11C18 11.2761 18.2239 11.5 18.5 11.5H20.5C20.7761 11.5 21 11.2761 21 11C21 10.7239 20.7761 10.5 20.5 10.5ZM10 21C10 21.2761 10.2239 21.5 10.5 21.5C10.7761 21.5 11 21.2761 11 21V19C11 18.7239 10.7761 18.5 10.5 18.5C10.2239 18.5 10 18.7239 10 19V21ZM18.1464 18.3536L17.1464 17.3536C16.9512 17.1583 16.9512 16.8417 17.1464 16.6464C17.3417 16.4512 17.6583 16.4512 17.8536 16.6464L18.8536 17.6464C19.0488 17.8417 19.0488 18.1583 18.8536 18.3536C18.6583 18.5488 18.3417 18.5488 18.1464 18.3536ZM18.8536 4.35355C19.0488 4.15829 19.0488 3.84171 18.8536 3.64645C18.6583 3.45118 18.3417 3.45118 18.1464 3.64645L17.1464 4.64645C16.9512 4.84171 16.9512 5.15829 17.1464 5.35355C17.3417 5.54882 17.6583 5.54882 17.8536 5.35355L18.8536 4.35355ZM2.14645 18.3536C1.95118 18.1583 1.95118 17.8417 2.14645 17.6464L3.14645 16.6464C3.34171 16.4512 3.65829 16.4512 3.85355 16.6464C4.04882 16.8417 4.04882 17.1583 3.85355 17.3536L2.85355 18.3536C2.65829 18.5488 2.34171 18.5488 2.14645 18.3536ZM2.85355 3.64645C2.65829 3.45118 2.34171 3.45118 2.14645 3.64645C1.95118 3.84171 1.95118 4.15829 2.14645 4.35355L3.14645 5.35355C3.34171 5.54882 3.65829 5.54882 3.85355 5.35355C4.04882 5.15829 4.04882 4.84171 3.85355 4.64645L2.85355 3.64645Z" fill="#9e6cff"/>
</svg>
