<svg width="23" height="22" viewBox="0 0 23 22" fill="none" xmlns="http://www.w3.org/2000/svg">
<path d="M11.0839 17.937C11.0016 17.937 10.9193 17.937 10.8379 17.937C10.2114 17.9166 10.16 17.8566 10.1368 17.2106C10.1232 16.8591 10.2094 16.4213 10.0332 16.1811C9.85689 15.941 9.41624 15.9109 9.08794 15.7937C7.85412 15.3744 7.17813 14.4883 6.94957 13.2341C6.87694 12.8351 7.0009 12.6908 7.40281 12.6598C7.51128 12.6511 7.62168 12.6598 7.73112 12.6598C8.62017 12.6521 8.61242 12.6598 8.97753 13.4656C9.19931 13.9546 9.54505 14.3217 10.0806 14.4854C10.897 14.7352 11.695 14.7575 12.4504 14.2984C12.863 14.0466 13.1564 13.6932 13.2378 13.2002C13.3879 12.2802 12.8388 11.7901 12.1028 11.5461C11.5391 11.3592 10.929 11.3204 10.3498 11.1752C9.74552 11.0241 9.12667 10.8846 8.56109 10.6319C7.65849 10.2319 7.25173 9.45711 7.15876 8.48768C7.00284 6.86744 8.03909 5.75952 9.31649 5.2811C9.44433 5.23365 9.5741 5.18426 9.70388 5.15327C10.2443 5.00509 10.2162 5.00219 10.1561 4.43951C10.0099 3.04105 10.4602 3.10981 11.4897 3.14952C11.8267 3.16211 12.0369 3.39067 12.063 3.7306C12.0815 4.05893 12.0834 4.38797 12.0689 4.71649C12.0611 5.00703 12.1851 5.1552 12.4562 5.25689C12.8688 5.39372 13.2648 5.57628 13.6368 5.80117C14.2353 6.18855 14.5578 6.79868 14.7128 7.48435C14.8038 7.89207 14.645 8.14678 14.2372 8.18164C13.5119 8.24556 13.1322 8.31626 12.8272 7.55699C12.5492 6.86357 11.9672 6.60499 11.2621 6.57206C10.9886 6.55365 10.714 6.55656 10.4409 6.58078C10.0841 6.6117 9.74874 6.76436 9.49113 7.01315C9.23351 7.26195 9.06927 7.59176 9.02595 7.94728C8.95526 8.45281 9.31068 8.98159 9.86851 9.21306C10.5813 9.5094 11.3444 9.57042 12.096 9.7031C12.7739 9.82319 13.4266 9.99364 14.0067 10.381C14.9094 10.9863 15.321 12.0942 15.1495 13.1595C14.8997 14.7013 13.9661 15.5574 12.5347 15.9506C12.2141 16.0388 12.064 16.185 12.0766 16.5143C12.0863 16.7874 12.0873 17.0624 12.0766 17.3365C12.0563 17.8275 11.9798 17.9089 11.5042 17.9379C11.359 17.9437 11.2215 17.937 11.0839 17.937Z" fill="#210D48"/>
<path d="M13.906 20.3145C13.906 19.503 13.9118 19.5204 14.6662 19.1776C17.5319 17.8779 19.4466 15.725 20.1322 12.6472C20.7763 9.7525 20.1593 7.08923 18.265 4.73781C17.3305 3.57566 16.1858 2.74278 14.859 2.12296C14.6309 2.02976 14.4104 1.91902 14.1994 1.79175C14.0774 1.70846 13.9428 1.55448 13.9283 1.41986C13.8958 1.0655 13.8958 0.708916 13.9283 0.354554C13.9496 0.0930699 14.1549 -0.0153977 14.4009 0.0107507C14.5612 0.0390844 14.718 0.0845394 14.8686 0.146335C15.9407 0.507571 16.9111 1.07122 17.8166 1.73267C19.2168 2.74902 20.3386 4.10157 21.0784 5.6656C21.7147 7.0011 22.1302 8.39666 22.1553 9.90939C22.1757 11.1684 22.1234 12.3925 21.8048 13.6109C21.4106 15.1178 20.6775 16.4378 19.7061 17.6416C18.4016 19.2541 16.7552 20.3697 14.8183 21.0796C14.7196 21.1255 14.6176 21.164 14.5132 21.1949C14.1491 21.2678 13.9489 21.1116 13.9128 20.7261C13.8953 20.5896 13.906 20.4521 13.906 20.3145Z" fill="#210D48"/>
<path d="M0.000710153 10.4741C-0.0264068 8.10908 0.72415 6.01429 2.06547 4.1103C3.38064 2.24504 5.16455 0.990886 7.26998 0.160915C7.41962 0.0948235 7.57574 0.0445143 7.73581 0.0108032C8.06606 -0.0434307 8.25684 0.107649 8.29945 0.438863C8.30478 0.520773 8.30478 0.602942 8.29945 0.684852C8.28977 1.75597 8.40405 1.63394 7.48595 2.0407C6.42645 2.51524 5.45218 3.12537 4.63673 3.93598C3.64697 4.92768 2.86154 6.08112 2.40056 7.41759C1.33525 10.4963 1.75847 13.392 3.60726 16.0563C4.61059 17.5012 6.00517 18.522 7.61475 19.1931C8.14547 19.4139 8.31979 19.6909 8.31204 20.2255C8.29752 21.2908 8.18614 21.3567 7.1741 20.9945C5.70167 20.4693 4.36662 19.6189 3.2683 18.5065C1.74878 16.9744 0.653453 15.1537 0.266069 12.9862C0.114989 12.1611 0.0849663 11.3127 0.000710153 10.4741Z" fill="#210D48"/>
</svg>
