<svg width="93" height="83" viewBox="0 0 93 83" fill="none" xmlns="http://www.w3.org/2000/svg">
<path fill-rule="evenodd" clip-rule="evenodd" d="M37.2801 5.49999C41.514 -1.83334 52.0987 -1.83333 56.3326 5.5L91.5064 66.4227C95.7403 73.756 90.4479 82.9227 81.9801 82.9227H11.6326C3.16481 82.9227 -2.12756 73.756 2.10634 66.4227L37.2801 5.49999ZM50.3351 56.5201L52.1907 23.9987C52.3579 21.0681 50.0265 18.5999 47.0911 18.5999C44.1557 18.5999 41.8242 21.0681 41.9915 23.9987L43.847 56.5201C43.9452 58.2399 45.3684 59.5843 47.0911 59.5843C48.8137 59.5843 50.237 58.2399 50.3351 56.5201ZM46.8066 75.8073C49.3216 75.8073 51.3604 73.7685 51.3604 71.2535C51.3604 68.7385 49.3216 66.6997 46.8066 66.6997C44.2916 66.6997 42.2528 68.7385 42.2528 71.2535C42.2528 73.7685 44.2916 75.8073 46.8066 75.8073Z" fill="url(#paint0_linear_233_108)"/>
<defs>
<linearGradient id="paint0_linear_233_108" x1="46.8064" y1="0" x2="-2.67199" y2="121.414" gradientUnits="userSpaceOnUse">
<stop stop-color="#C50E7E"/>
<stop offset="1" stop-color="#ED693C"/>
</linearGradient>
</defs>
</svg>
