<svg width="18" height="18" viewBox="0 0 18 18" fill="none" xmlns="http://www.w3.org/2000/svg">
<path d="M12.8571 15.4278V16.8053C12.8571 17.2617 12.4254 17.6318 11.8929 17.6318H0.964286C0.431719 17.6318 0 17.2617 0 16.8053V4.13245C0 3.67598 0.431719 3.30596 0.964286 3.30596H3.85714V13.4993C3.85714 14.5627 4.86647 15.4278 6.10714 15.4278H12.8571ZM12.8571 3.58145V0H6.10714C5.57458 0 5.14286 0.370026 5.14286 0.826489V13.4993C5.14286 13.9558 5.57458 14.3258 6.10714 14.3258H17.0357C17.5683 14.3258 18 13.9558 18 13.4993V4.40794H13.8214C13.2911 4.40794 12.8571 4.03602 12.8571 3.58145ZM17.7176 2.51291L15.0681 0.242058C14.8873 0.0870715 14.642 1.14605e-06 14.3863 0L14.1429 0V3.30596H18V3.0973C18 2.87811 17.8984 2.6679 17.7176 2.51291Z" fill="white"/>
</svg>
