<svg width="247" height="73" viewBox="0 0 247 73" fill="none" xmlns="http://www.w3.org/2000/svg">
<path d="M23.0534 9.7917L37.2992 18.0158V34.466L23.0534 42.6907L8.8089 34.4666V18.0165L23.0534 9.7917ZM23.0534 2.25568L2.28198 14.2484V38.2346L23.0534 50.2267L43.8255 38.2346V14.2484L23.0534 2.25568Z" fill="white"/>
<path d="M92.3532 49.9222C89.3226 49.9222 86.6992 49.3163 84.483 48.1033C82.2655 46.8916 80.5512 45.1609 79.3395 42.9124C78.1271 40.664 77.5212 38.0248 77.5212 34.9942V15.9522H84.4586V34.9942C84.4586 36.7164 84.7856 38.2235 85.4395 39.5154C86.0927 40.8074 87.0182 41.7961 88.2142 42.4822C89.4101 43.1683 90.8053 43.5104 92.4005 43.5104C93.9958 43.5104 95.3824 43.1677 96.5632 42.4822C97.7427 41.7968 98.6604 40.8074 99.3142 39.5154C99.9675 38.2235 100.295 36.7164 100.295 34.9942V15.9522H107.185V34.9942C107.185 37.9926 106.579 40.616 105.367 42.8651C104.154 45.1135 102.44 46.8521 100.223 48.0803C98.0065 49.3084 95.3824 49.9222 92.3532 49.9222Z" fill="white"/>
<path d="M112.734 49.444V15.9522H119.337L135.986 37.5781V15.9522H142.494V49.4433H136.369L119.29 27.0523V49.444H112.734Z" fill="white"/>
<path d="M148.57 49.444V15.9522H155.507V43.3196H173.832V49.444H148.57Z" fill="white"/>
<path d="M192.586 49.9702C190.099 49.9702 187.786 49.5308 185.65 48.6539C183.512 47.777 181.637 46.5489 180.027 44.9694C178.416 43.3907 177.157 41.5567 176.247 39.4674C175.339 37.3788 174.884 35.1218 174.884 32.6971C174.884 30.273 175.339 28.0167 176.247 25.9268C177.157 23.8382 178.416 22.0035 180.027 20.4247C181.637 18.846 183.512 17.6185 185.65 16.7403C187.786 15.8634 190.099 15.4246 192.586 15.4246C195.075 15.4246 197.396 15.8634 199.547 16.7403C201.7 17.6178 203.583 18.8453 205.194 20.4247C206.804 22.0035 208.057 23.8382 208.95 25.9268C209.842 28.016 210.29 30.273 210.29 32.6971C210.29 35.1218 209.842 37.3782 208.95 39.4674C208.057 41.5567 206.804 43.39 205.194 44.9694C203.583 46.5482 201.7 47.777 199.547 48.6539C197.396 49.5308 195.075 49.9702 192.586 49.9702ZM192.586 43.6071C194.118 43.6071 195.521 43.3282 196.796 42.7697C198.072 42.2118 199.189 41.4468 200.146 40.4732C201.103 39.5003 201.852 38.3438 202.394 37.0045C202.936 35.6645 203.207 34.2292 203.207 32.6984C203.207 31.1361 202.936 29.6922 202.394 28.368C201.852 27.0451 201.103 25.8965 200.146 24.9236C199.189 23.9507 198.073 23.185 196.796 22.6271C195.521 22.0693 194.118 21.7897 192.586 21.7897C191.087 21.7897 189.699 22.0693 188.424 22.6271C187.148 23.1856 186.031 23.9513 185.075 24.9236C184.118 25.8965 183.368 27.0451 182.826 28.368C182.283 29.6922 182.012 31.119 182.012 32.6504C182.012 34.2134 182.283 35.6645 182.826 37.0045C183.368 38.3438 184.118 39.5003 185.075 40.4732C186.031 41.4461 187.147 42.2118 188.424 42.7697C189.7 43.3282 191.087 43.6071 192.586 43.6071Z" fill="white"/>
<path d="M231.579 49.9222C229.092 49.9222 226.763 49.4834 224.594 48.6059C222.425 47.7297 220.535 46.5087 218.925 44.9464C217.314 43.3841 216.054 41.558 215.146 39.4681C214.236 37.3795 213.781 35.1225 213.781 32.6978C213.781 30.2421 214.236 27.9693 215.146 25.8801C216.054 23.7915 217.322 21.9647 218.948 20.4017C220.575 18.8394 222.465 17.6198 224.618 16.7416C226.771 15.8647 229.092 15.4259 231.579 15.4259C233.43 15.4259 235.215 15.6818 236.938 16.1917C238.659 16.7021 240.263 17.4198 241.746 18.3447C243.23 19.2703 244.498 20.3866 245.55 21.6937L240.861 26.3346C239.649 24.8354 238.254 23.7033 236.675 22.9376C235.096 22.1719 233.398 21.7891 231.579 21.7891C230.08 21.7891 228.677 22.0686 227.369 22.6265C226.061 23.185 224.929 23.9507 223.972 24.9229C223.015 25.8959 222.266 27.0444 221.724 28.3673C221.182 29.6915 220.911 31.1348 220.911 32.6978C220.911 34.2285 221.182 35.6566 221.724 36.9795C222.266 38.3037 223.032 39.4516 224.02 40.4245C225.009 41.3975 226.165 42.1553 227.488 42.6967C228.812 43.24 230.256 43.5104 231.818 43.5104C233.572 43.5104 235.215 43.1433 236.747 42.4098C238.278 41.6764 239.632 40.6239 240.813 39.2523L245.359 43.7492C244.306 45.0253 243.046 46.1252 241.579 47.0508C240.112 47.9763 238.525 48.6855 236.819 49.1795C235.111 49.6748 233.365 49.9222 231.579 49.9222Z" fill="white"/>
<path d="M67.6519 57.2273L46.8798 69.2194L26.1084 57.2273V33.2411L46.8798 21.2483L67.6519 33.2411V57.2273Z" fill="url(#paint0_linear_11_99)"/>
<defs>
<linearGradient id="paint0_linear_11_99" x1="27.5377" y1="78.0789" x2="61.1931" y2="20.929" gradientUnits="userSpaceOnUse">
<stop stop-color="#43499E"/>
<stop offset="0.1188" stop-color="#764395"/>
<stop offset="0.2665" stop-color="#A3378C"/>
<stop offset="0.3914" stop-color="#C42784"/>
<stop offset="0.487" stop-color="#D81680"/>
<stop offset="0.5418" stop-color="#DF0B7F"/>
<stop offset="0.8172" stop-color="#ED693C"/>
</linearGradient>
</defs>
</svg>
