<svg width="247" height="73" viewBox="0 0 247 73" fill="none" xmlns="http://www.w3.org/2000/svg">
<path d="M23.0535 9.79171L37.2993 18.0158V34.4661L23.0535 42.6908L8.80892 34.4667V18.0165L23.0535 9.79171ZM23.0535 2.25568L2.28198 14.2485V38.2341L23.0535 50.2262L43.8256 38.2341V14.2485L23.0535 2.25568Z" fill="#27353F"/>
<path d="M92.3532 49.9223C89.3233 49.9223 86.6992 49.3164 84.483 48.1028C82.2655 46.891 80.5512 45.1603 79.3395 42.9119C78.1278 40.6634 77.5212 38.0242 77.5212 34.9936V15.9522H84.4587V34.9943C84.4587 36.7165 84.7856 38.2236 85.4395 39.5155C86.0927 40.8081 87.0176 41.7962 88.2142 42.4823C89.4108 43.1684 90.8054 43.5105 92.4006 43.5105C93.9958 43.5105 95.3825 43.1678 96.5633 42.4823C97.7428 41.7975 98.6604 40.8081 99.3143 39.5155C99.9675 38.2236 100.295 36.7165 100.295 34.9943V15.9522H107.185V34.9943C107.185 37.9933 106.579 40.6167 105.367 42.8652C104.154 45.1136 102.44 46.8529 100.223 48.0804C98.0066 49.3086 95.3825 49.9223 92.3532 49.9223Z" fill="#27353F"/>
<path d="M112.735 49.4447V15.9522H119.337L135.987 37.5782V15.9522H142.495V49.4434H136.37L119.29 27.0524V49.4447H112.735Z" fill="#27353F"/>
<path d="M148.57 49.4447V15.9522H155.507V43.3197H173.832V49.4447H148.57Z" fill="#27353F"/>
<path d="M192.587 49.9697C190.099 49.9697 187.786 49.5302 185.65 48.654C183.512 47.7765 181.637 46.549 180.027 44.9689C178.416 43.3901 177.157 41.5561 176.248 39.4675C175.339 37.3783 174.885 35.1219 174.885 32.6972C174.885 30.2731 175.339 28.0167 176.248 25.9268C177.157 23.8382 178.416 22.0036 180.027 20.4248C181.637 18.846 183.512 17.6185 185.65 16.7403C187.786 15.8634 190.099 15.4247 192.587 15.4247C195.075 15.4247 197.397 15.8634 199.548 16.7403C201.701 17.6179 203.583 18.8454 205.194 20.4248C206.804 22.0036 208.057 23.8382 208.95 25.9268C209.843 28.0161 210.29 30.2731 210.29 32.6972C210.29 35.1219 209.843 37.3783 208.95 39.4675C208.058 41.5568 206.804 43.3901 205.194 44.9689C203.583 46.5477 201.701 47.7765 199.548 48.654C197.396 49.5302 195.075 49.9697 192.587 49.9697ZM192.587 43.6078C194.118 43.6078 195.521 43.3283 196.797 42.7704C198.072 42.2126 199.189 41.4469 200.146 40.474C201.103 39.5011 201.853 38.3446 202.395 37.0059C202.937 35.6653 203.208 34.2306 203.208 32.6998C203.208 31.1375 202.937 29.6935 202.395 28.3693C201.853 27.0465 201.103 25.8979 200.146 24.925C199.189 23.952 198.073 23.1863 196.797 22.6285C195.52 22.0707 194.118 21.7911 192.587 21.7911C191.087 21.7911 189.699 22.0707 188.424 22.6285C187.149 23.187 186.031 23.9527 185.076 24.925C184.118 25.8979 183.368 27.0465 182.826 28.3693C182.284 29.6935 182.013 31.1204 182.013 32.6518C182.013 34.2148 182.284 35.6659 182.826 37.0066C183.368 38.3453 184.118 39.5017 185.076 40.4746C186.031 41.4476 187.148 42.2139 188.424 42.7711C189.7 43.3283 191.087 43.6078 192.587 43.6078Z" fill="#27353F"/>
<path d="M231.58 49.9223C229.093 49.9223 226.763 49.4835 224.594 48.606C222.426 47.7298 220.536 46.5088 218.926 44.9465C217.315 43.3842 216.055 41.5587 215.146 39.4682C214.236 37.3796 213.782 35.1232 213.782 32.6978C213.782 30.2422 214.236 27.9694 215.146 25.8801C216.055 23.7915 217.323 21.9648 218.949 20.4018C220.576 18.8394 222.466 17.6198 224.619 16.7416C226.771 15.8647 229.093 15.426 231.58 15.426C233.43 15.426 235.215 15.6819 236.938 16.1917C238.66 16.7022 240.264 17.4198 241.747 18.3447C243.231 19.2703 244.5 20.3866 245.551 21.6937L240.861 26.3347C239.649 24.8355 238.254 23.7034 236.676 22.9377C235.097 22.172 233.399 21.7891 231.581 21.7891C230.081 21.7891 228.678 22.0687 227.37 22.6265C226.063 23.185 224.931 23.9507 223.973 24.923C223.016 25.8959 222.267 27.0445 221.725 28.3674C221.183 29.6916 220.912 31.1348 220.912 32.6978C220.912 34.2286 221.183 35.6567 221.725 36.9789C222.267 38.3038 223.033 39.4517 224.021 40.4246C225.01 41.3976 226.167 42.1554 227.489 42.6961C228.813 43.2395 230.256 43.5098 231.819 43.5098C233.572 43.5098 235.216 43.1428 236.747 42.4093C238.278 41.6758 239.633 40.6233 240.814 39.2511L245.359 43.748C244.307 45.0241 243.046 46.1247 241.579 47.0502C240.113 47.9758 238.525 48.6849 236.82 49.179C235.112 49.675 233.365 49.9223 231.58 49.9223Z" fill="#27353F"/>
<path d="M67.652 57.2281L46.8799 69.2196L26.1084 57.2281V33.2412L46.8799 21.2484L67.652 33.2412V57.2281Z" fill="url(#paint0_linear_13_297)"/>
<defs>
<linearGradient id="paint0_linear_13_297" x1="27.5373" y1="78.0797" x2="61.1927" y2="20.9297" gradientUnits="userSpaceOnUse">
<stop stop-color="#43499E"/>
<stop offset="0.1188" stop-color="#764395"/>
<stop offset="0.2665" stop-color="#A3378C"/>
<stop offset="0.3914" stop-color="#C42784"/>
<stop offset="0.487" stop-color="#D81680"/>
<stop offset="0.5418" stop-color="#DF0B7F"/>
<stop offset="0.8172" stop-color="#ED693C"/>
</linearGradient>
</defs>
</svg>
